<?xml version="1.0" encoding="UTF-8" standalone="no"?>
<!-- Created with Inkscape (http://www.inkscape.org/) -->

<svg
   version="1.1"
   id="svg1"
   width="154.2628"
   height="137.04311"
   viewBox="0 0 154.2628 137.04311"
   sodipodi:docname="almalogo.svg"
   inkscape:version="1.3 (0e150ed6c4, 2023-07-21)"
   xmlns:inkscape="http://www.inkscape.org/namespaces/inkscape"
   xmlns:sodipodi="http://sodipodi.sourceforge.net/DTD/sodipodi-0.dtd"
   xmlns="http://www.w3.org/2000/svg"
   xmlns:svg="http://www.w3.org/2000/svg">
  <defs
     id="defs1" />
  <sodipodi:namedview
     id="namedview1"
     pagecolor="#ffffff"
     bordercolor="#000000"
     borderopacity="0.25"
     inkscape:showpageshadow="2"
     inkscape:pageopacity="0.0"
     inkscape:pagecheckerboard="0"
     inkscape:deskcolor="#d1d1d1"
     showgrid="false"
     inkscape:zoom="1.9921374"
     inkscape:cx="17.067096"
     inkscape:cy="66.511477"
     inkscape:window-width="1920"
     inkscape:window-height="1057"
     inkscape:window-x="-8"
     inkscape:window-y="-8"
     inkscape:window-maximized="1"
     inkscape:current-layer="g1" />
  <g
     inkscape:groupmode="layer"
     inkscape:label="Image"
     id="g1"
     transform="translate(-85.888162,-88.062562)">
    <g
       id="g5"
       transform="translate(34.236283,-5.209245)">
      <path
         style="fill:none;fill-opacity:1;stroke:#000000;stroke-width:52.9134;stroke-linecap:round;stroke-linejoin:miter;stroke-dasharray:none;stroke-opacity:1;paint-order:markers stroke fill"
         d="m 129.58871,133.73643 c 0,0 9.93856,-15.61775 26.26621,-13.843 15.27566,1.6604 27.19871,18.44132 22.00683,32.65529 -9.89228,27.08243 -47.9181,47.56314 -47.9181,47.56314 0,0 -40.407651,-22.75404 -47.563131,-48.27304 -4.37349,-15.59746 8.80867,-32.0913 23.071671,-31.94539 18.5994,0.19027 24.13652,13.843 24.13652,13.843 z"
         id="path5"
         sodipodi:nodetypes="csscssc" />
      <path
         style="fill:#000000;fill-opacity:1;stroke:#ffffff;stroke-width:32.8819;stroke-linecap:round;stroke-linejoin:miter;stroke-dasharray:none;stroke-opacity:1;paint-order:markers stroke fill"
         d="m 129.58871,133.73643 c 0,0 9.93856,-15.61775 26.26621,-13.843 15.27566,1.6604 27.19871,18.44132 22.00683,32.65529 -9.89228,27.08243 -47.9181,47.56314 -47.9181,47.56314 0,0 -40.407651,-22.75404 -47.563131,-48.27304 -4.37349,-15.59746 8.80867,-32.0913 23.071671,-31.94539 18.5994,0.19027 24.13652,13.843 24.13652,13.843 z"
         id="path1"
         sodipodi:nodetypes="csscssc" />
      <g
         id="g3"
         transform="translate(-172.44571,3.7826377)">
        <path
           style="opacity:1;fill:#ffffff;fill-opacity:1;stroke:none;stroke-width:32.8819;stroke-linecap:round;stroke-linejoin:miter;stroke-dasharray:none;stroke-opacity:1;paint-order:markers stroke fill"
           d="m 303.30376,142.51195 c 0,0 2.12969,30.52559 7.27645,32.12286 5.14675,1.59727 6.9215,-2.30716 6.9215,-2.30716 0,0 -5.85666,-4.25939 -6.21161,-21.47441 -0.35495,-17.21501 0,-16.32764 0,-16.32764 0,0 -4.43686,-0.53242 -6.2116,1.06484 -1.77474,1.59727 -19.16724,22.8942 -21.65188,27.86349 -2.48464,4.96928 -5.5017,10.47099 -3.37201,11.35836 2.12969,0.88737 7.45392,-1.24232 7.45392,-1.24232 0,0 -2.51758,-6.3859 5.89788,-18.26018 8.309,-11.72407 9.89735,-12.79784 9.89735,-12.79784 z"
           id="path2"
           sodipodi:nodetypes="cscscssscsc" />
        <path
           style="opacity:1;fill:#ffffff;fill-opacity:1;stroke:none;stroke-width:32.8819;stroke-linecap:round;stroke-linejoin:miter;stroke-dasharray:none;stroke-opacity:1;paint-order:markers stroke fill"
           d="m 277.56997,161.97296 c 0.35495,0.62116 2.41809,-0.53243 4.90273,-0.53243 2.48464,0 25.62286,0.1553 25.62286,0.1553 l -1.24232,-3.72696 c 0,0 -22.96075,-0.0666 -25.80034,0.46587 -2.83959,0.53242 -3.83788,3.01706 -3.48293,3.63822 z"
           id="path3"
           sodipodi:nodetypes="zsccsz" />
      </g>
      <path
         style="opacity:1;fill:none;fill-opacity:1;stroke:#000000;stroke-width:7.55906;stroke-linecap:round;stroke-linejoin:miter;stroke-dasharray:none;stroke-opacity:1;paint-order:markers stroke fill"
         d="m 96.605479,156.41062 c -29.72168,54.55235 -41.17407,45.7277 -41.17407,45.7277"
         id="path4" />
    </g>
  </g>
</svg>
