<?xml version="1.0" encoding="UTF-8"?>
<svg version="1.1" xmlns="http://www.w3.org/2000/svg" width="16" height="16">
<path d="M0 0 C4.62 0 9.24 0 14 0 C14 1.32 14 2.64 14 4 C12.68 4.33 11.36 4.66 10 5 C10 5.66 10 6.32 10 7 C8.68 6.67 7.36 6.34 6 6 C6 7.32 6 8.64 6 10 C7.32 9.67 8.64 9.34 10 9 C10 9.66 10 10.32 10 11 C11.32 11.33 12.64 11.66 14 12 C14 13.32 14 14.64 14 16 C9.38 16 4.76 16 0 16 C0 10.72 0 5.44 0 0 Z " fill="#F0F2F5" transform="translate(1,0)"/>
<path d="M0 0 C4.62 0 9.24 0 14 0 C14 1.32 14 2.64 14 4 C13.34 4 12.68 4 12 4 C12 3.34 12 2.68 12 2 C8.7 2 5.4 2 2 2 C2 5.96 2 9.92 2 14 C5.3 14 8.6 14 12 14 C12 13.34 12 12.68 12 12 C12.66 12 13.32 12 14 12 C14 13.32 14 14.64 14 16 C9.38 16 4.76 16 0 16 C0 10.72 0 5.44 0 0 Z " fill="#0C4C87" transform="translate(1,0)"/>
<path d="M0 0 C1.98 0 3.96 0 6 0 C6 0.99 6 1.98 6 3 C4.68 2.67 3.36 2.34 2 2 C2 3.32 2 4.64 2 6 C3.32 5.67 4.64 5.34 6 5 C6 5.99 6 6.98 6 8 C4.02 8 2.04 8 0 8 C0 5.36 0 2.72 0 0 Z " fill="#010508" transform="translate(5,4)"/>
</svg>
